<svg width="24" height="24" viewBox="0 0 24 24" fill="none" xmlns="http://www.w3.org/2000/svg">
<circle cx="12" cy="12" r="12" fill="#0067C5"/>
<path fill-rule="evenodd" clip-rule="evenodd" d="M6.63058 7.33604C6.63058 7.33603 6.63079 7.33597 6.63125 7.33587L6.63058 7.33604ZM6.67211 7.3416V11.7182H7.87486C8.24305 11.7182 8.54152 12.0167 8.54152 12.3849C8.54152 12.7531 8.24305 13.0515 7.87486 13.0515H6.66523C6.37769 13.0515 6.10931 12.9894 5.8814 12.8454C5.64996 12.6993 5.50989 12.5 5.43129 12.3114C5.3559 12.1304 5.33705 11.961 5.33388 11.8467C5.33223 11.7874 5.33464 11.7367 5.33785 11.6981C5.33815 11.6945 5.33846 11.691 5.33877 11.6876V7.32646L6.00544 7.32646C5.33877 7.32646 5.33877 7.32679 5.33877 7.32646L5.33878 7.32512L5.33878 7.32372L5.3388 7.32069L5.33888 7.31382L5.3393 7.29684C5.33973 7.28415 5.34047 7.26861 5.34176 7.25061C5.34431 7.21485 5.3491 7.16811 5.35815 7.11377C5.37574 7.00825 5.41215 6.85737 5.49163 6.69842C5.57241 6.53686 5.70405 6.35502 5.91399 6.21506C6.12811 6.07232 6.38363 6 6.66523 6H9.63431V6.66667C9.63431 6 9.63398 6 9.63431 6L9.63564 6L9.63705 6.00001L9.64008 6.00002L9.64695 6.00011L9.66393 6.00053C9.67662 6.00095 9.69216 6.0017 9.71016 6.00298C9.74592 6.00554 9.79266 6.01032 9.847 6.01938C9.95252 6.03697 10.1034 6.07338 10.2623 6.15286C10.4239 6.23364 10.6057 6.36528 10.7457 6.57522C10.8885 6.78933 10.9608 7.04486 10.9608 7.32646V12.3849H10.2941C10.9608 12.3849 10.9608 12.3847 10.9608 12.3849L10.9608 12.3869L10.9608 12.3893L10.9607 12.3958L10.9604 12.4144C10.9601 12.4293 10.9595 12.4492 10.9584 12.4736C10.9561 12.5223 10.9519 12.5894 10.9437 12.6711C10.9274 12.8341 10.8952 13.0592 10.8309 13.3163C10.705 13.8199 10.4448 14.4914 9.89615 15.0452L7.37579 17.7847C7.1265 18.0557 6.70476 18.0732 6.43379 17.824C6.16283 17.5747 6.14526 17.1529 6.39455 16.882L8.92376 14.1328C8.93002 14.126 8.93643 14.1193 8.94297 14.1128C9.26692 13.7888 9.44412 13.366 9.53737 12.9929C9.58305 12.8103 9.6058 12.6505 9.617 12.5385C9.62256 12.4828 9.62518 12.4399 9.6264 12.413C9.62701 12.3996 9.62727 12.3903 9.62738 12.3854L9.62744 12.3823L9.62744 12.3834L9.62744 12.3841L9.62743 7.33451C9.62405 7.33395 9.62124 7.33358 9.61916 7.33333H6.67328C6.67273 7.33671 6.67235 7.33953 6.67211 7.3416ZM9.62491 7.29251C9.62478 7.29205 9.62472 7.29181 9.62473 7.29181L9.62491 7.29251ZM6.6671 11.8145C6.66708 11.8145 6.667 11.8141 6.66691 11.8133L6.6671 11.8145Z" fill="white"/>
<path d="M6.63058 7.33604C6.63058 7.33603 6.63079 7.33597 6.63125 7.33587M5.33877 7.32646V11.6876C5.33846 11.691 5.33815 11.6945 5.33785 11.6981C5.33464 11.7367 5.33223 11.7874 5.33388 11.8467C5.33705 11.961 5.3559 12.1304 5.43129 12.3114C5.50989 12.5 5.64996 12.6993 5.8814 12.8454C6.10931 12.9894 6.37769 13.0515 6.66523 13.0515H7.87486C8.24305 13.0515 8.54152 12.7531 8.54152 12.3849C8.54152 12.0167 8.24305 11.7182 7.87486 11.7182H6.67211V7.3416C6.67235 7.33953 6.67273 7.33671 6.67328 7.33333H9.61916C9.62124 7.33358 9.62405 7.33395 9.62743 7.33451L9.62744 12.3841L9.62744 12.3834L9.62744 12.3823L9.62738 12.3854C9.62727 12.3903 9.62701 12.3996 9.6264 12.413C9.62518 12.4399 9.62256 12.4828 9.617 12.5385C9.6058 12.6505 9.58305 12.8103 9.53737 12.9929C9.44412 13.366 9.26692 13.7888 8.94297 14.1128C8.93643 14.1193 8.93002 14.126 8.92376 14.1328L6.39455 16.882C6.14526 17.1529 6.16283 17.5747 6.43379 17.824C6.70476 18.0732 7.1265 18.0557 7.37579 17.7847L9.89615 15.0452C10.4448 14.4914 10.705 13.8199 10.8309 13.3163C10.8952 13.0592 10.9274 12.8341 10.9437 12.6711C10.9519 12.5894 10.9561 12.5223 10.9584 12.4736C10.9595 12.4492 10.9601 12.4293 10.9604 12.4144L10.9607 12.3958L10.9608 12.3893L10.9608 12.3869L10.9608 12.3849M5.33877 7.32646L6.00544 7.32646C5.33877 7.32646 5.33877 7.32679 5.33877 7.32646ZM5.33877 7.32646L5.33878 7.32512L5.33878 7.32372L5.3388 7.32069L5.33888 7.31382L5.3393 7.29684C5.33973 7.28415 5.34047 7.26861 5.34176 7.25061C5.34431 7.21485 5.3491 7.16811 5.35815 7.11377C5.37574 7.00825 5.41215 6.85737 5.49163 6.69842C5.57241 6.53686 5.70405 6.35502 5.91399 6.21506C6.12811 6.07232 6.38363 6 6.66523 6H9.63431M9.63431 6V6.66667C9.63431 6 9.63398 6 9.63431 6ZM9.63431 6L9.63564 6L9.63705 6.00001L9.64008 6.00002L9.64695 6.00011L9.66393 6.00053C9.67662 6.00095 9.69216 6.0017 9.71016 6.00298C9.74592 6.00554 9.79266 6.01032 9.847 6.01938C9.95252 6.03697 10.1034 6.07338 10.2623 6.15286C10.4239 6.23364 10.6057 6.36528 10.7457 6.57522C10.8885 6.78933 10.9608 7.04486 10.9608 7.32646V12.3849M10.9608 12.3849H10.2941C10.9608 12.3849 10.9608 12.3847 10.9608 12.3849ZM9.62491 7.29251C9.62478 7.29205 9.62472 7.29181 9.62473 7.29181M6.57615 11.7092C6.57616 11.7091 6.57665 11.7093 6.57757 11.7097M6.6671 11.8145C6.66708 11.8145 6.667 11.8141 6.66691 11.8133L6.6671 11.8145Z" stroke="white" stroke-width="0.3" stroke-linecap="round" stroke-linejoin="round"/>
<path fill-rule="evenodd" clip-rule="evenodd" d="M14.548 7.33604C14.548 7.33603 14.5482 7.33597 14.5487 7.33587L14.548 7.33604ZM14.5895 7.3416V11.7182H15.7923C16.1605 11.7182 16.4589 12.0167 16.4589 12.3849C16.4589 12.7531 16.1605 13.0515 15.7923 13.0515H14.5827C14.2951 13.0515 14.0267 12.9894 13.7988 12.8454C13.5674 12.6993 13.4273 12.5 13.3487 12.3114C13.2733 12.1304 13.2545 11.961 13.2513 11.8467C13.2496 11.7874 13.2521 11.7367 13.2553 11.6981C13.2556 11.6945 13.2559 11.691 13.2562 11.6876V7.32646L13.9229 7.32646C13.2562 7.32646 13.2562 7.32679 13.2562 7.32646L13.2562 7.32512L13.2562 7.32372L13.2562 7.32069L13.2563 7.31382L13.2567 7.29684C13.2571 7.28415 13.2579 7.26861 13.2592 7.25061C13.2617 7.21485 13.2665 7.16811 13.2756 7.11377C13.2932 7.00825 13.3296 6.85737 13.409 6.69842C13.4898 6.53686 13.6215 6.35502 13.8314 6.21506C14.0455 6.07232 14.301 6 14.5827 6H17.4418V6.66474C17.4418 6 17.4414 6 17.4418 6L17.4431 6L17.4445 6.00001L17.4475 6.00002L17.4544 6.00011L17.4714 6.00053C17.4841 6.00095 17.4996 6.0017 17.5176 6.00298C17.5534 6.00554 17.6001 6.01032 17.6545 6.01938C17.76 6.03697 17.9109 6.07338 18.0698 6.15286C18.2314 6.23364 18.4132 6.36528 18.5532 6.57522C18.6959 6.78933 18.7682 7.04486 18.7682 7.32646V12.3849H18.1016C18.7682 12.3849 18.7682 12.3847 18.7682 12.3849L18.7682 12.3869L18.7682 12.3893L18.7682 12.3958L18.7679 12.4144C18.7675 12.4293 18.7669 12.4492 18.7658 12.4736C18.7636 12.5223 18.7593 12.5894 18.7512 12.6711C18.7349 12.8341 18.7026 13.0592 18.6384 13.3163C18.5125 13.8199 18.2523 14.4914 17.7036 15.0452L15.1832 17.7847C14.934 18.0557 14.5122 18.0732 14.2412 17.824C13.9703 17.5747 13.9527 17.1529 14.202 16.882L16.7312 14.1328C16.7375 14.126 16.7439 14.1193 16.7504 14.1128C17.0744 13.7888 17.2516 13.366 17.3448 12.9929C17.3905 12.8103 17.4133 12.6505 17.4245 12.5385C17.43 12.4828 17.4326 12.4399 17.4339 12.413C17.4345 12.3996 17.4347 12.3903 17.4348 12.3854L17.4349 12.3823L17.4349 12.3834L17.4349 12.3841L17.4349 7.33451C17.4315 7.33395 17.4287 7.33358 17.4266 7.33333H14.5907C14.5901 7.33671 14.5898 7.33953 14.5895 7.3416ZM17.4324 7.29251C17.4322 7.29205 17.4322 7.29181 17.4322 7.29181L17.4324 7.29251ZM14.5845 11.8145C14.5845 11.8145 14.5844 11.8141 14.5843 11.8133L14.5845 11.8145Z" fill="white"/>
<path d="M14.548 7.33604C14.548 7.33603 14.5482 7.33597 14.5487 7.33587M13.2562 7.32646V11.6876C13.2559 11.691 13.2556 11.6945 13.2553 11.6981C13.2521 11.7367 13.2496 11.7874 13.2513 11.8467C13.2545 11.961 13.2733 12.1304 13.3487 12.3114C13.4273 12.5 13.5674 12.6993 13.7988 12.8454C14.0267 12.9894 14.2951 13.0515 14.5827 13.0515H15.7923C16.1605 13.0515 16.4589 12.7531 16.4589 12.3849C16.4589 12.0167 16.1605 11.7182 15.7923 11.7182H14.5895V7.3416C14.5898 7.33953 14.5901 7.33671 14.5907 7.33333H17.4266C17.4287 7.33358 17.4315 7.33395 17.4349 7.33451L17.4349 12.3841L17.4349 12.3834L17.4349 12.3823L17.4348 12.3854C17.4347 12.3903 17.4345 12.3996 17.4339 12.413C17.4326 12.4399 17.43 12.4828 17.4245 12.5385C17.4133 12.6505 17.3905 12.8103 17.3448 12.9929C17.2516 13.366 17.0744 13.7888 16.7504 14.1128C16.7439 14.1193 16.7375 14.126 16.7312 14.1328L14.202 16.882C13.9527 17.1529 13.9703 17.5747 14.2412 17.824C14.5122 18.0732 14.934 18.0557 15.1832 17.7847L17.7036 15.0452C18.2523 14.4914 18.5125 13.8199 18.6384 13.3163C18.7026 13.0592 18.7349 12.8341 18.7512 12.6711C18.7593 12.5894 18.7636 12.5223 18.7658 12.4736C18.7669 12.4492 18.7675 12.4293 18.7679 12.4144L18.7682 12.3958L18.7682 12.3893L18.7682 12.3869L18.7682 12.3849M13.2562 7.32646L13.9229 7.32646C13.2562 7.32646 13.2562 7.32679 13.2562 7.32646ZM13.2562 7.32646L13.2562 7.32512L13.2562 7.32372L13.2562 7.32069L13.2563 7.31382L13.2567 7.29684C13.2571 7.28415 13.2579 7.26861 13.2592 7.25061C13.2617 7.21485 13.2665 7.16811 13.2756 7.11377C13.2932 7.00825 13.3296 6.85737 13.409 6.69842C13.4898 6.53686 13.6215 6.35502 13.8314 6.21506C14.0455 6.07232 14.301 6 14.5827 6H17.4418M17.4418 6V6.66474C17.4418 6 17.4414 6 17.4418 6ZM17.4418 6L17.4431 6L17.4445 6.00001L17.4475 6.00002L17.4544 6.00011L17.4714 6.00053C17.4841 6.00095 17.4996 6.0017 17.5176 6.00298C17.5534 6.00554 17.6001 6.01032 17.6545 6.01938C17.76 6.03697 17.9109 6.07338 18.0698 6.15286C18.2314 6.23364 18.4132 6.36528 18.5532 6.57522C18.6959 6.78933 18.7682 7.04486 18.7682 7.32646V12.3849M18.7682 12.3849H18.1016C18.7682 12.3849 18.7682 12.3847 18.7682 12.3849ZM17.4324 7.29251C17.4322 7.29205 17.4322 7.29181 17.4322 7.29181M14.4936 11.7092C14.4936 11.7091 14.4941 11.7093 14.495 11.7097M14.5845 11.8145C14.5845 11.8145 14.5844 11.8141 14.5843 11.8133L14.5845 11.8145Z" stroke="white" stroke-width="0.3" stroke-linecap="round" stroke-linejoin="round"/>
</svg>
