<svg viewBox="0 0 24 19" width="24" height="19" fill="none" xmlns="http://www.w3.org/2000/svg"><path d="M1.627 18.039H5.41v-9.17L0 4.844v11.59c0 .88.726 1.605 1.627 1.605Z" fill="#4285F4"/><path d="M18.34 18.039h3.783c.901 0 1.627-.726 1.627-1.627V4.844l-5.388 4.047v9.148h-.022Z" fill="#34A853"/><path d="M18.34 1.876V8.89l5.388-4.047V2.69c0-2-2.287-3.144-3.892-1.935L18.34 1.876Z" fill="#FBBC04"/><path fill-rule="evenodd" clip-rule="evenodd" d="M5.388 8.869V1.875l6.465 4.86 6.465-4.86v7.016l-6.443 4.838-6.487-4.86Z" fill="#EA4335"/><path d="M0 2.667v2.155L5.388 8.87V1.876L3.87.732C2.287-.455 0 .688 0 2.667Z" fill="#C5221F"/></svg>