<svg width="24" height="24" viewBox="0 0 24 24" fill="none" xmlns="http://www.w3.org/2000/svg">
<circle cx="12" cy="12" r="12" fill="#252525"/>
<path d="M11.9334 18.6666L14.9667 10.6666H16.3667L19.4001 18.6666H18.0001L17.3001 16.6333H14.0667L13.3334 18.6666H11.9334ZM14.4667 15.4666H16.8667L15.7001 12.1666H15.6334L14.4667 15.4666ZM6.66675 16.6666L5.73341 15.7333L9.10008 12.3666C8.67786 11.9 8.30853 11.4166 7.99208 10.9166C7.67519 10.4166 7.40008 9.88887 7.16675 9.33331H8.56675C8.76675 9.73331 8.98075 10.0944 9.20875 10.4166C9.4363 10.7389 9.71119 11.0778 10.0334 11.4333C10.5223 10.9 10.9279 10.3529 11.2501 9.79198C11.5723 9.23065 11.8445 8.63331 12.0667 7.99998H4.66675V6.66665H9.33342V5.33331H10.6667V6.66665H15.3334V7.99998H13.4001C13.1667 8.78887 12.8501 9.55553 12.4501 10.3C12.0501 11.0444 11.5556 11.7444 10.9667 12.4L12.5667 14.0333L12.0667 15.4L10.0001 13.3333L6.66675 16.6666Z" fill="white"/>
</svg>
